# xmcd
#
# Track frame offsets: 
#        150
#        20547
#        44875
#        70604
#        91602
#        110904
#        133963
#        152538
#
# Disc length: 2284 seconds
#
# Revision: 0
# Processed by: cddbd v1.5.2PL0 Copyright (c) Steve Scherf et al.
# Submitted via: ExactAudioCopy v0.95b4
#
DISCID=6a08ea08
DTITLE=Kashif - Kashif
DYEAR=1983
DGENRE=R&B
TTITLE0=Don't Stop My Love
TTITLE1=Stone Love
TTITLE2=I Just Gotta Have You (Lover Turn Me On)
TTITLE3=Help Yourself to My Love
TTITLE4=Rumors
TTITLE5=Say Somethin' Love
TTITLE6=The Mood
TTITLE7=All
EXTD=
EXTT0=
EXTT1=
EXTT2=
EXTT3=
EXTT4=
EXTT5=
EXTT6=
EXTT7=
PLAYORDER=
